<svg height="494" width="720" xmlns="http://www.w3.org/2000/svg">
<rect height="494" fill="#555" width="720"></rect>
<text fill="#7f7" font-family="Courier New" font-size="12" xml:space="preserve">
<tspan x="10" y="26">2018-01-20 14:23:18 +0700</tspan>
<tspan x="10" y="42">- ignore env var $npm_package_swggAll and $npm_package_swggTags0 if package-name has -all sufix</tspan>
<tspan x="10" y="58"></tspan>
<tspan x="10" y="74">2018-01-20 13:46:47 +0700</tspan>
<tspan x="10" y="90">[build clean]</tspan>
<tspan x="10" y="106"></tspan>
<tspan x="10" y="122">2018-01-20 13:35:39 +0700</tspan>
<tspan x="10" y="138">[npm publish] - npm publish 2018.1.19</tspan>
<tspan x="10" y="154">- fix failed semanticRequired validation-error in ui</tspan>
<tspan x="10" y="170">- rename package-name swgg-wechat -&gt; swgg-wechat-all</tspan>
<tspan x="10" y="186">- remove unused datatable link</tspan>
<tspan x="10" y="202"></tspan>
<tspan x="10" y="218">2017-11-21 12:37:57 +0800</tspan>
<tspan x="10" y="234">[npm publish] - npm publish 2017.11.20</tspan>
<tspan x="10" y="250">- add api POST /pay/closeorder</tspan>
<tspan x="10" y="266">- add api POST /pay/downloadbill</tspan>
<tspan x="10" y="282">- add api POST /pay/micropay</tspan>
<tspan x="10" y="298">- add api POST /pay/queryexchagerate</tspan>
<tspan x="10" y="314">- add api POST /pay/refundquery</tspan>
<tspan x="10" y="330">- add api POST /pay/settlementquery</tspan>
<tspan x="10" y="346">- add api POST /pay/unifiedorder</tspan>
<tspan x="10" y="362">- add api POST /payitil/report</tspan>
<tspan x="10" y="378">- add api POST /secapi/pay/refund</tspan>
<tspan x="10" y="394">- add api POST /secapi/pay/reverse</tspan>
<tspan x="10" y="410">- add api POST /tools/shorturl</tspan>
<tspan x="10" y="426">- add api POST /{notify_url}</tspan>
<tspan x="10" y="442"></tspan>
<tspan x="10" y="458">2014-03-26 02:31:50 +0700</tspan>
<tspan x="10" y="474">add blank README.md</tspan>
</text>
</svg>
