<svg height="494" width="720" xmlns="http://www.w3.org/2000/svg">
<rect height="494" fill="#555" width="720"></rect>
<text fill="#7f7" font-family="Courier New" font-size="12" xml:space="preserve">
<tspan x="10" y="26">2018-01-15 23:22:44 +0700</tspan>
<tspan x="10" y="42">minor</tspan>
<tspan x="10" y="58"></tspan>
<tspan x="10" y="74">2017-12-12 19:27:33 +0700</tspan>
<tspan x="10" y="90">- sync with $npm_package_githubRepoAlias</tspan>
<tspan x="10" y="106"></tspan>
<tspan x="10" y="122">2017-11-21 14:56:59 +0800</tspan>
<tspan x="10" y="138">minor</tspan>
<tspan x="10" y="154"></tspan>
<tspan x="10" y="170">2017-11-21 13:20:07 +0800</tspan>
<tspan x="10" y="186">[build clean]</tspan>
<tspan x="10" y="202"></tspan>
<tspan x="10" y="218">2017-11-21 12:37:57 +0800</tspan>
<tspan x="10" y="234">[npm publish] - npm publish 2017.11.20</tspan>
<tspan x="10" y="250">- add api POST /pay/closeorder</tspan>
<tspan x="10" y="266">- add api POST /pay/downloadbill</tspan>
<tspan x="10" y="282">- add api POST /pay/micropay</tspan>
<tspan x="10" y="298">- add api POST /pay/queryexchagerate</tspan>
<tspan x="10" y="314">- add api POST /pay/refundquery</tspan>
<tspan x="10" y="330">- add api POST /pay/settlementquery</tspan>
<tspan x="10" y="346">- add api POST /pay/unifiedorder</tspan>
<tspan x="10" y="362">- add api POST /payitil/report</tspan>
<tspan x="10" y="378">- add api POST /secapi/pay/refund</tspan>
<tspan x="10" y="394">- add api POST /secapi/pay/reverse</tspan>
<tspan x="10" y="410">- add api POST /tools/shorturl</tspan>
<tspan x="10" y="426">- add api POST /{notify_url}</tspan>
<tspan x="10" y="442"></tspan>
<tspan x="10" y="458">2014-03-26 02:31:50 +0700</tspan>
<tspan x="10" y="474">add blank README.md</tspan>
</text>
</svg>
