<svg height="510" width="720" xmlns="http://www.w3.org/2000/svg">
<rect height="510" fill="#555" width="720"></rect>
<text fill="#7f7" font-family="Courier New" font-size="12" xml:space="preserve">
<tspan x="10" y="26">2018-06-21 17:46:03 +0000u000a[npm publishAfterCommit]</tspan>

<tspan x="10" y="42"></tspan>

<tspan x="10" y="58">2018-06-21 12:39:24 -0500u000a[npm publishAfterCommitAfterBuild]</tspan>

<tspan x="10" y="74">2018-04-04 05:25:24 +0800u000aupdate.build</tspan>

<tspan x="10" y="90"></tspan>

<tspan x="10" y="106">2018-01-20 14:23:18 +0700u000a- ignore env var $npm_package_swggAll and $npm_package_swggTags0 i\</tspan>
<tspan x="10" y="122">f package-name has -all sufix</tspan>

<tspan x="10" y="138"></tspan>

<tspan x="10" y="154">2018-01-20 13:46:47 +0700u000a[build clean]</tspan>

<tspan x="10" y="170"></tspan>

<tspan x="10" y="186">2018-01-20 13:35:39 +0700u000a[npm publish] - npm publish 2018.1.19</tspan>

<tspan x="10" y="202">- fix failed semanticRequired validation-error in ui</tspan>

<tspan x="10" y="218">- rename package-name swgg-wechat -&gt; swgg-wechat-all</tspan>

<tspan x="10" y="234">- remove unused datatable link</tspan>

<tspan x="10" y="250"></tspan>

<tspan x="10" y="266">2017-11-21 12:37:57 +0800u000a[npm publish] - npm publish 2017.11.20</tspan>

<tspan x="10" y="282">- add api POST /pay/closeorder</tspan>

<tspan x="10" y="298">- add api POST /pay/downloadbill</tspan>

<tspan x="10" y="314">- add api POST /pay/micropay</tspan>

<tspan x="10" y="330">- add api POST /pay/queryexchagerate</tspan>

<tspan x="10" y="346">- add api POST /pay/refundquery</tspan>

<tspan x="10" y="362">- add api POST /pay/settlementquery</tspan>

<tspan x="10" y="378">- add api POST /pay/unifiedorder</tspan>

<tspan x="10" y="394">- add api POST /payitil/report</tspan>

<tspan x="10" y="410">- add api POST /secapi/pay/refund</tspan>

<tspan x="10" y="426">- add api POST /secapi/pay/reverse</tspan>

<tspan x="10" y="442">- add api POST /tools/shorturl</tspan>

<tspan x="10" y="458">- add api POST /{notify_url}</tspan>

<tspan x="10" y="474"></tspan>

<tspan x="10" y="490">2014-03-26 02:31:50 +0700u000aadd blank README.md</tspan>

</text>
</svg>
